<mxfile host="app.diagrams.net" agent="Mozilla/5.0 (Windows NT 10.0; Win64; x64) AppleWebKit/537.36 (KHTML, like Gecko) Chrome/141.0.0.0 Safari/537.36" version="28.2.7">
  <diagram name="Página-1" id="2q8f5R7QNdIMXdVPFOrD">
    <mxGraphModel dx="1042" dy="1731" grid="1" gridSize="10" guides="1" tooltips="1" connect="1" arrows="1" fold="1" page="1" pageScale="1" pageWidth="827" pageHeight="1169" math="0" shadow="0">
      <root>
        <mxCell id="0" />
        <mxCell id="1" parent="0" />
        <mxCell id="ub6JqPsJmsCeWxGJgpJZ-11" style="rounded=0;orthogonalLoop=1;jettySize=auto;html=1;entryX=0;entryY=0.5;entryDx=0;entryDy=0;endArrow=none;endFill=0;" parent="1" source="GUPlHXkuvfN4wE-hsdpa-1" target="GUPlHXkuvfN4wE-hsdpa-2" edge="1">
          <mxGeometry relative="1" as="geometry">
            <mxPoint x="225" y="580" as="targetPoint" />
          </mxGeometry>
        </mxCell>
        <mxCell id="ub6JqPsJmsCeWxGJgpJZ-18" style="rounded=0;orthogonalLoop=1;jettySize=auto;html=1;entryX=0;entryY=0.5;entryDx=0;entryDy=0;endArrow=none;endFill=0;" parent="1" source="GUPlHXkuvfN4wE-hsdpa-1" target="ub6JqPsJmsCeWxGJgpJZ-1" edge="1">
          <mxGeometry relative="1" as="geometry" />
        </mxCell>
        <mxCell id="GUPlHXkuvfN4wE-hsdpa-1" value="Produtor" style="shape=umlActor;verticalLabelPosition=bottom;verticalAlign=top;html=1;" parent="1" vertex="1">
          <mxGeometry x="130" y="285" width="30" height="65" as="geometry" />
        </mxCell>
        <mxCell id="GUPlHXkuvfN4wE-hsdpa-6" value="" style="swimlane;startSize=0;movable=1;resizable=1;rotatable=1;deletable=1;editable=1;locked=0;connectable=1;" parent="1" vertex="1">
          <mxGeometry x="300" y="-30" width="770" height="1130" as="geometry" />
        </mxCell>
        <mxCell id="ub6JqPsJmsCeWxGJgpJZ-7" value="" style="edgeStyle=orthogonalEdgeStyle;rounded=0;orthogonalLoop=1;jettySize=auto;html=1;" parent="GUPlHXkuvfN4wE-hsdpa-6" source="GUPlHXkuvfN4wE-hsdpa-2" target="GUPlHXkuvfN4wE-hsdpa-7" edge="1">
          <mxGeometry relative="1" as="geometry" />
        </mxCell>
        <mxCell id="ub6JqPsJmsCeWxGJgpJZ-8" value="&lt;font style=&quot;font-size: 14px;&quot;&gt;&amp;lt;&amp;lt; include &amp;gt;&amp;gt;&lt;/font&gt;" style="edgeLabel;html=1;align=center;verticalAlign=middle;resizable=0;points=[];" parent="ub6JqPsJmsCeWxGJgpJZ-7" vertex="1" connectable="0">
          <mxGeometry x="-0.2667" y="1" relative="1" as="geometry">
            <mxPoint as="offset" />
          </mxGeometry>
        </mxCell>
        <mxCell id="GUPlHXkuvfN4wE-hsdpa-2" value="Capturar foto" style="ellipse;whiteSpace=wrap;html=1;movable=1;resizable=1;rotatable=1;deletable=1;editable=1;locked=0;connectable=1;" parent="GUPlHXkuvfN4wE-hsdpa-6" vertex="1">
          <mxGeometry x="115" y="180" width="140" height="70" as="geometry" />
        </mxCell>
        <mxCell id="ub6JqPsJmsCeWxGJgpJZ-9" value="" style="edgeStyle=orthogonalEdgeStyle;rounded=0;orthogonalLoop=1;jettySize=auto;html=1;startArrow=classic;startFill=1;endArrow=none;endFill=0;" parent="GUPlHXkuvfN4wE-hsdpa-6" source="GUPlHXkuvfN4wE-hsdpa-7" target="GUPlHXkuvfN4wE-hsdpa-8" edge="1">
          <mxGeometry relative="1" as="geometry" />
        </mxCell>
        <mxCell id="ub6JqPsJmsCeWxGJgpJZ-10" value="&lt;font style=&quot;font-size: 14px;&quot;&gt;&amp;lt;&amp;lt; extends &amp;gt;&amp;gt;&lt;/font&gt;" style="edgeLabel;html=1;align=center;verticalAlign=middle;resizable=0;points=[];" parent="ub6JqPsJmsCeWxGJgpJZ-9" vertex="1" connectable="0">
          <mxGeometry x="-0.2" y="3" relative="1" as="geometry">
            <mxPoint as="offset" />
          </mxGeometry>
        </mxCell>
        <mxCell id="GUPlHXkuvfN4wE-hsdpa-7" value="Classificar foto" style="ellipse;whiteSpace=wrap;html=1;" parent="GUPlHXkuvfN4wE-hsdpa-6" vertex="1">
          <mxGeometry x="115" y="310" width="140" height="70" as="geometry" />
        </mxCell>
        <mxCell id="ub6JqPsJmsCeWxGJgpJZ-16" value="" style="rounded=0;orthogonalLoop=1;jettySize=auto;html=1;endArrow=none;endFill=0;startArrow=classic;startFill=1;" parent="GUPlHXkuvfN4wE-hsdpa-6" source="GUPlHXkuvfN4wE-hsdpa-8" target="ub6JqPsJmsCeWxGJgpJZ-2" edge="1">
          <mxGeometry relative="1" as="geometry" />
        </mxCell>
        <mxCell id="ub6JqPsJmsCeWxGJgpJZ-17" value="&lt;font style=&quot;font-size: 14px;&quot;&gt;&amp;lt;&amp;lt; extends &amp;gt;&amp;gt;&lt;/font&gt;" style="edgeLabel;html=1;align=center;verticalAlign=middle;resizable=0;points=[];" parent="ub6JqPsJmsCeWxGJgpJZ-16" vertex="1" connectable="0">
          <mxGeometry x="-0.1429" y="2" relative="1" as="geometry">
            <mxPoint y="1" as="offset" />
          </mxGeometry>
        </mxCell>
        <mxCell id="GUPlHXkuvfN4wE-hsdpa-8" value="Gerar plano de ação" style="ellipse;whiteSpace=wrap;html=1;" parent="GUPlHXkuvfN4wE-hsdpa-6" vertex="1">
          <mxGeometry x="115" y="457.5" width="140" height="70" as="geometry" />
        </mxCell>
        <mxCell id="ub6JqPsJmsCeWxGJgpJZ-22" value="" style="rounded=0;orthogonalLoop=1;jettySize=auto;html=1;startArrow=blockThin;startFill=1;endArrow=none;endFill=0;" parent="GUPlHXkuvfN4wE-hsdpa-6" source="ub6JqPsJmsCeWxGJgpJZ-1" target="ub6JqPsJmsCeWxGJgpJZ-3" edge="1">
          <mxGeometry relative="1" as="geometry" />
        </mxCell>
        <mxCell id="ub6JqPsJmsCeWxGJgpJZ-23" value="&lt;font style=&quot;font-size: 14px;&quot;&gt;&amp;lt;&amp;lt; extends &amp;gt;&amp;gt;&lt;/font&gt;" style="edgeLabel;html=1;align=center;verticalAlign=middle;resizable=0;points=[];" parent="ub6JqPsJmsCeWxGJgpJZ-22" vertex="1" connectable="0">
          <mxGeometry x="-0.4" y="1" relative="1" as="geometry">
            <mxPoint x="-1" y="9" as="offset" />
          </mxGeometry>
        </mxCell>
        <mxCell id="ub6JqPsJmsCeWxGJgpJZ-27" value="" style="rounded=0;orthogonalLoop=1;jettySize=auto;html=1;endArrow=none;endFill=0;startArrow=classic;startFill=1;" parent="GUPlHXkuvfN4wE-hsdpa-6" source="ub6JqPsJmsCeWxGJgpJZ-1" target="ub6JqPsJmsCeWxGJgpJZ-26" edge="1">
          <mxGeometry relative="1" as="geometry" />
        </mxCell>
        <mxCell id="ub6JqPsJmsCeWxGJgpJZ-28" value="&lt;font style=&quot;font-size: 14px;&quot;&gt;&amp;lt;&amp;lt; extends &amp;gt;&amp;gt;&lt;/font&gt;" style="edgeLabel;html=1;align=center;verticalAlign=middle;resizable=0;points=[];" parent="ub6JqPsJmsCeWxGJgpJZ-27" vertex="1" connectable="0">
          <mxGeometry x="-0.0609" y="-1" relative="1" as="geometry">
            <mxPoint as="offset" />
          </mxGeometry>
        </mxCell>
        <mxCell id="ub6JqPsJmsCeWxGJgpJZ-1" value="Visualizar Gráfico Espacial/Temporal" style="ellipse;whiteSpace=wrap;html=1;" parent="GUPlHXkuvfN4wE-hsdpa-6" vertex="1">
          <mxGeometry x="113" y="560" width="140" height="70" as="geometry" />
        </mxCell>
        <mxCell id="ub6JqPsJmsCeWxGJgpJZ-2" value="Exportar Relatório PDF" style="ellipse;whiteSpace=wrap;html=1;" parent="GUPlHXkuvfN4wE-hsdpa-6" vertex="1">
          <mxGeometry x="360" y="360" width="140" height="70" as="geometry" />
        </mxCell>
        <mxCell id="ub6JqPsJmsCeWxGJgpJZ-3" value="Exportar Gráfico PDF" style="ellipse;whiteSpace=wrap;html=1;" parent="GUPlHXkuvfN4wE-hsdpa-6" vertex="1">
          <mxGeometry x="360" y="690" width="140" height="70" as="geometry" />
        </mxCell>
        <mxCell id="ub6JqPsJmsCeWxGJgpJZ-12" value="Buscar foto" style="ellipse;whiteSpace=wrap;html=1;movable=1;resizable=1;rotatable=1;deletable=1;editable=1;locked=0;connectable=1;" parent="GUPlHXkuvfN4wE-hsdpa-6" vertex="1">
          <mxGeometry x="115" y="90" width="140" height="70" as="geometry" />
        </mxCell>
        <mxCell id="ub6JqPsJmsCeWxGJgpJZ-14" value="" style="edgeStyle=orthogonalEdgeStyle;rounded=0;orthogonalLoop=1;jettySize=auto;html=1;exitX=1;exitY=0.5;exitDx=0;exitDy=0;entryX=1;entryY=0.5;entryDx=0;entryDy=0;" parent="GUPlHXkuvfN4wE-hsdpa-6" source="ub6JqPsJmsCeWxGJgpJZ-12" target="GUPlHXkuvfN4wE-hsdpa-7" edge="1">
          <mxGeometry relative="1" as="geometry">
            <mxPoint x="220" y="290" as="sourcePoint" />
            <mxPoint x="220" y="350" as="targetPoint" />
            <Array as="points">
              <mxPoint x="320" y="125" />
              <mxPoint x="320" y="345" />
            </Array>
          </mxGeometry>
        </mxCell>
        <mxCell id="ub6JqPsJmsCeWxGJgpJZ-15" value="&lt;font style=&quot;font-size: 14px;&quot;&gt;&amp;lt;&amp;lt; include &amp;gt;&amp;gt;&lt;/font&gt;" style="edgeLabel;html=1;align=center;verticalAlign=middle;resizable=0;points=[];" parent="ub6JqPsJmsCeWxGJgpJZ-14" vertex="1" connectable="0">
          <mxGeometry x="-0.2667" y="1" relative="1" as="geometry">
            <mxPoint y="36" as="offset" />
          </mxGeometry>
        </mxCell>
        <mxCell id="ub6JqPsJmsCeWxGJgpJZ-24" value="Acessar biblioteca de sintomas" style="ellipse;whiteSpace=wrap;html=1;" parent="GUPlHXkuvfN4wE-hsdpa-6" vertex="1">
          <mxGeometry x="113" y="800" width="140" height="70" as="geometry" />
        </mxCell>
        <mxCell id="ub6JqPsJmsCeWxGJgpJZ-26" value="Consultar dados da Classificação" style="ellipse;whiteSpace=wrap;html=1;" parent="GUPlHXkuvfN4wE-hsdpa-6" vertex="1">
          <mxGeometry x="360" y="590" width="140" height="70" as="geometry" />
        </mxCell>
        <mxCell id="ub6JqPsJmsCeWxGJgpJZ-30" style="rounded=0;orthogonalLoop=1;jettySize=auto;html=1;entryX=1;entryY=0.5;entryDx=0;entryDy=0;" parent="GUPlHXkuvfN4wE-hsdpa-6" source="ub6JqPsJmsCeWxGJgpJZ-29" target="ub6JqPsJmsCeWxGJgpJZ-1" edge="1">
          <mxGeometry relative="1" as="geometry" />
        </mxCell>
        <mxCell id="ub6JqPsJmsCeWxGJgpJZ-31" value="&lt;font style=&quot;font-size: 14px;&quot;&gt;&amp;lt;&amp;lt; extends &amp;gt;&amp;gt;&lt;/font&gt;" style="edgeLabel;html=1;align=center;verticalAlign=middle;resizable=0;points=[];" parent="ub6JqPsJmsCeWxGJgpJZ-30" vertex="1" connectable="0">
          <mxGeometry x="-0.0588" y="-1" relative="1" as="geometry">
            <mxPoint as="offset" />
          </mxGeometry>
        </mxCell>
        <mxCell id="ub6JqPsJmsCeWxGJgpJZ-45" value="" style="rounded=0;orthogonalLoop=1;jettySize=auto;html=1;" parent="GUPlHXkuvfN4wE-hsdpa-6" source="ub6JqPsJmsCeWxGJgpJZ-29" target="ub6JqPsJmsCeWxGJgpJZ-44" edge="1">
          <mxGeometry relative="1" as="geometry" />
        </mxCell>
        <mxCell id="ub6JqPsJmsCeWxGJgpJZ-46" value="&lt;font style=&quot;font-size: 14px;&quot;&gt;&amp;lt;&amp;lt; include &amp;gt;&amp;gt;&lt;/font&gt;" style="edgeLabel;html=1;align=center;verticalAlign=middle;resizable=0;points=[];" parent="ub6JqPsJmsCeWxGJgpJZ-45" vertex="1" connectable="0">
          <mxGeometry x="0.0112" relative="1" as="geometry">
            <mxPoint as="offset" />
          </mxGeometry>
        </mxCell>
        <mxCell id="ub6JqPsJmsCeWxGJgpJZ-29" value="Filtrar classificações" style="ellipse;whiteSpace=wrap;html=1;" parent="GUPlHXkuvfN4wE-hsdpa-6" vertex="1">
          <mxGeometry x="360" y="480" width="140" height="70" as="geometry" />
        </mxCell>
        <mxCell id="ub6JqPsJmsCeWxGJgpJZ-33" style="rounded=0;orthogonalLoop=1;jettySize=auto;html=1;" parent="GUPlHXkuvfN4wE-hsdpa-6" source="ub6JqPsJmsCeWxGJgpJZ-32" target="ub6JqPsJmsCeWxGJgpJZ-24" edge="1">
          <mxGeometry relative="1" as="geometry" />
        </mxCell>
        <mxCell id="ub6JqPsJmsCeWxGJgpJZ-35" value="&lt;font style=&quot;font-size: 14px;&quot;&gt;&amp;lt;&amp;lt; extends &amp;gt;&amp;gt;&lt;/font&gt;" style="edgeLabel;html=1;align=center;verticalAlign=middle;resizable=0;points=[];" parent="ub6JqPsJmsCeWxGJgpJZ-33" vertex="1" connectable="0">
          <mxGeometry x="-0.1855" y="1" relative="1" as="geometry">
            <mxPoint as="offset" />
          </mxGeometry>
        </mxCell>
        <mxCell id="ub6JqPsJmsCeWxGJgpJZ-32" value="Pesquisar doenças" style="ellipse;whiteSpace=wrap;html=1;" parent="GUPlHXkuvfN4wE-hsdpa-6" vertex="1">
          <mxGeometry x="410" y="800" width="140" height="70" as="geometry" />
        </mxCell>
        <mxCell id="ub6JqPsJmsCeWxGJgpJZ-37" style="rounded=0;orthogonalLoop=1;jettySize=auto;html=1;entryX=1;entryY=1;entryDx=0;entryDy=0;" parent="GUPlHXkuvfN4wE-hsdpa-6" source="ub6JqPsJmsCeWxGJgpJZ-36" target="ub6JqPsJmsCeWxGJgpJZ-24" edge="1">
          <mxGeometry relative="1" as="geometry">
            <mxPoint x="260" y="980" as="targetPoint" />
          </mxGeometry>
        </mxCell>
        <mxCell id="ub6JqPsJmsCeWxGJgpJZ-38" value="&lt;font style=&quot;font-size: 14px;&quot;&gt;&amp;lt;&amp;lt; extends &amp;gt;&amp;gt;&lt;/font&gt;" style="edgeLabel;html=1;align=center;verticalAlign=middle;resizable=0;points=[];" parent="ub6JqPsJmsCeWxGJgpJZ-37" vertex="1" connectable="0">
          <mxGeometry x="0.0327" y="-2" relative="1" as="geometry">
            <mxPoint as="offset" />
          </mxGeometry>
        </mxCell>
        <mxCell id="ub6JqPsJmsCeWxGJgpJZ-36" value="Pesquisar sintomas" style="ellipse;whiteSpace=wrap;html=1;" parent="GUPlHXkuvfN4wE-hsdpa-6" vertex="1">
          <mxGeometry x="410" y="900" width="140" height="70" as="geometry" />
        </mxCell>
        <mxCell id="ub6JqPsJmsCeWxGJgpJZ-44" value="Filtro por data/gravidade/densidade" style="ellipse;whiteSpace=wrap;html=1;" parent="GUPlHXkuvfN4wE-hsdpa-6" vertex="1">
          <mxGeometry x="610" y="410" width="140" height="70" as="geometry" />
        </mxCell>
        <mxCell id="ub6JqPsJmsCeWxGJgpJZ-13" style="rounded=0;orthogonalLoop=1;jettySize=auto;html=1;entryX=0;entryY=0.5;entryDx=0;entryDy=0;endArrow=none;endFill=0;exitX=1;exitY=0.3333333333333333;exitDx=0;exitDy=0;exitPerimeter=0;" parent="1" source="GUPlHXkuvfN4wE-hsdpa-1" target="ub6JqPsJmsCeWxGJgpJZ-12" edge="1">
          <mxGeometry relative="1" as="geometry">
            <mxPoint x="430" y="315" as="sourcePoint" />
            <mxPoint x="675" y="190" as="targetPoint" />
          </mxGeometry>
        </mxCell>
        <mxCell id="ub6JqPsJmsCeWxGJgpJZ-25" style="rounded=0;orthogonalLoop=1;jettySize=auto;html=1;entryX=0;entryY=0.5;entryDx=0;entryDy=0;endArrow=none;endFill=0;" parent="1" target="ub6JqPsJmsCeWxGJgpJZ-24" edge="1">
          <mxGeometry relative="1" as="geometry">
            <mxPoint x="160" y="340" as="sourcePoint" />
            <mxPoint x="415" y="669" as="targetPoint" />
          </mxGeometry>
        </mxCell>
      </root>
    </mxGraphModel>
  </diagram>
</mxfile>
